<?xml version="1.0" encoding="utf-8"?>
<!-- Generator: Adobe Illustrator 17.1.0, SVG Export Plug-In . SVG Version: 6.00 Build 0)  -->
<!DOCTYPE svg PUBLIC "-//W3C//DTD SVG 1.1//EN" "http://www.w3.org/Graphics/SVG/1.1/DTD/svg11.dtd">
<svg version="1.1" id="Layer_1" xmlns="http://www.w3.org/2000/svg" xmlns:xlink="http://www.w3.org/1999/xlink" x="0px" y="0px"
	 viewBox="0 0 398 398" enable-background="new 0 0 398 398" xml:space="preserve">
<image display="none" overflow="visible" width="455" height="500" xlink:href="8C1988B9.jpg"  transform="matrix(1 0 0 1 -25.5 -28.5)">
</image>
<path fill="#8B96FC" d="M125.4,71.6c-1.9,1-3.8,2-5.7,3.1c-70.5,40.7-94.6,130.8-53.9,201.2L199,199L125.4,71.6z"/>
<path fill="#8B96FC" d="M199,0C89.1,0,0,89.1,0,199s89.1,199,199,199s199-89.1,199-199S308.9,0,199,0z M199,368
	c-93.3,0-169-75.7-169-169S105.7,30,199,30s169,75.7,169,169S292.3,368,199,368z"/>
</svg>
