<?xml version="1.0" encoding="utf-8"?>
<!-- Generator: Adobe Illustrator 17.1.0, SVG Export Plug-In . SVG Version: 6.00 Build 0)  -->
<!DOCTYPE svg PUBLIC "-//W3C//DTD SVG 1.1//EN" "http://www.w3.org/Graphics/SVG/1.1/DTD/svg11.dtd">
<svg version="1.1" id="Layer_2" xmlns="http://www.w3.org/2000/svg" xmlns:xlink="http://www.w3.org/1999/xlink" x="0px" y="0px"
	 viewBox="0 0 900 900" enable-background="new 0 0 900 900" xml:space="preserve">
<g id="Layer_2">
	
		<image overflow="visible" opacity="0.79" width="885" height="810" xlink:href="F273DDA4.png"  transform="matrix(1 0 0 1 -16 71)">
	</image>
	<g>
		<g>
			<g>
				<path fill="#ABAA37" d="M17.5,635.5l654-351c0,0-122.4-176.8-325-78c-162,79-124,300-124,300l-82,36c0,0-51.6-298,184-406
					c288-132,472,178,472,178L17.5,635.5z"/>
				<path fill="#7B7B7B" d="M698.5,395.5l-537,226c0,0,126,213,325,213c213,0,366-177,332-439l-82,36c0,0,5,32,5,48
					c0,232-169,282-245,282c-135,0-209-108-209-108L698.5,395.5z"/>
			</g>
		</g>
	</g>
</g>
</svg>
