<?xml version="1.0" encoding="utf-8"?>
<!-- Generator: Adobe Illustrator 17.1.0, SVG Export Plug-In . SVG Version: 6.00 Build 0)  -->
<!DOCTYPE svg PUBLIC "-//W3C//DTD SVG 1.1//EN" "http://www.w3.org/Graphics/SVG/1.1/DTD/svg11.dtd">
<svg version="1.1" xmlns="http://www.w3.org/2000/svg" xmlns:xlink="http://www.w3.org/1999/xlink" x="0px" y="0px"
	 viewBox="0 0 364 363" enable-background="new 0 0 364 363" xml:space="preserve">
<g id="Layer_3">
	<path fill="#8B96FC" d="M180,5.5C83.9,5.5,6,83.4,6,179.5s77.9,174,174,174s174-77.9,174-174S276.1,5.5,180,5.5z M180,323.5
		c-79.5,0-144-64.5-144-144s64.5-144,144-144s144,64.5,144,144S259.5,323.5,180,323.5z"/>
</g>
<g id="Layer_3_copy" display="none">
</g>
<g id="Layer_5">
	<g id="swords_copy">
		<g>
			<path fill="#8B96FC" d="M134.9,92.8L76.4,28.1l-65-10.5L11,17.2l0.1,0.3l-0.3-0.1l0.4,0.4l10.5,65l67.9,61.4
				C97.3,121.8,113.8,103.3,134.9,92.8z"/>
			<path fill="#8B96FC" d="M300,282.1c-0.7-5.4,22.2-20.8,22.2-20.8s-11.1-8.1-17.1-5.5c-7.4,3.2-13.6,9.6-13.6,9.6l-28.7-31.7
				c-9.3,14.8-22.6,26.7-38.5,34.1l34.1,30.8c0,0-6.4,6.2-9.6,13.6c-2.6,6,5.5,17.1,5.5,17.1s15.4-22.8,20.8-22.2
				c6.1,0.8,50.2,45.3,50.2,45.3l20.1-20.1C345.3,332.3,300.7,288.2,300,282.1z"/>
		</g>
		<g>
			<path fill="#8B96FC" d="M107.5,296.9l32.5-29.3c-16.2-6.8-30-18.1-39.8-32.3l-25.8,28.5c0,0-6.2-6.4-13.6-9.6
				c-6-2.6-17.1,5.5-17.1,5.5s22.8,15.4,22.2,20.8c-0.8,6.1-45.3,50.2-45.3,50.2l20.1,20.1c0,0,44.1-44.6,50.2-45.3
				c5.4-0.7,20.8,22.2,20.8,22.2s8.1-11.1,5.5-17.1C113.8,303.1,107.5,296.9,107.5,296.9z"/>
			<path fill="#8B96FC" d="M355.9,17.6l0.1-0.3l-0.4,0.4l-65,10.5l-60.2,66.5c20.6,11.3,36.3,30.3,43.2,53.2l71.8-64.9l10.5-65
				l0.4-0.4L355.9,17.6z"/>
		</g>
	</g>
	<g>
		<g>
			<path fill="#8B96FC" d="M121.5,172.5l8,25.5l28-87.5l19.5,55l12.5-11.3L199,188l17-17.5l11,32l11-28.5h32.3
				c-2.8-47.4-42.2-85-90.3-85c-47.6,0-86.7,36.8-90.2,83.5H121.5z"/>
			<path fill="#8B96FC" d="M244,184l-17,45l-13.5-41L196,204.5l-12-34.8l-12.5,10.8l-15-41l-28,85l-14-40H89.6
				c2.6,47.7,42.1,85.5,90.4,85.5c48.5,0,88-38.1,90.4-86H244z"/>
		</g>
		<g>
			<path fill="#8B96FC" d="M121.5,172.5l8,25.5l28-87.5l19.5,55l12.5-11.3L199,188l17-17.5l11,32l11-28.5h32.3
				c-2.8-47.4-42.2-85-90.3-85c-47.6,0-86.7,36.8-90.2,83.5H121.5z"/>
			<path fill="#8B96FC" d="M244,184l-17,45l-13.5-41L196,204.5l-12-34.8l-12.5,10.8l-15-41l-28,85l-14-40H89.6
				c2.6,47.7,42.1,85.5,90.4,85.5c48.5,0,88-38.1,90.4-86H244z"/>
		</g>
	</g>
</g>
<g id="swords" display="none">
	<path display="inline" fill="#FFFFFF" d="M339.3,326.2c0,0-44.6-44.1-45.3-50.2c-0.7-5.4,22.2-20.8,22.2-20.8s-11.1-8.1-17.1-5.5
		c-7.4,3.2-13.6,9.6-13.6,9.6L81.4,33.6l-65-10.5L16,22.7l0.1,0.3L15.7,23l0.4,0.4l10.5,65l225.7,204c0,0-6.4,6.2-9.6,13.6
		c-2.6,6,5.5,17.1,5.5,17.1s15.4-22.8,20.8-22.2c6.1,0.8,50.2,45.3,50.2,45.3L339.3,326.2z"/>
	<path display="inline" fill="#FFFFFF" d="M25.7,326.2c0,0,44.6-44.1,45.3-50.2c0.7-5.4-22.2-20.8-22.2-20.8s11.1-8.1,17.1-5.5
		c7.4,3.2,13.6,9.6,13.6,9.6l204-225.7l65-10.5l0.4-0.4l-0.1,0.3l0.3-0.1l-0.4,0.4l-10.5,65l-225.7,204c0,0,6.4,6.2,9.6,13.6
		c2.6,6-5.5,17.1-5.5,17.1S101.4,300.3,96,301c-6.1,0.8-50.2,45.3-50.2,45.3L25.7,326.2z"/>
</g>
</svg>
