<?xml version="1.0" encoding="utf-8"?>
<!-- Generator: Adobe Illustrator 17.1.0, SVG Export Plug-In . SVG Version: 6.00 Build 0)  -->
<!DOCTYPE svg PUBLIC "-//W3C//DTD SVG 1.1//EN" "http://www.w3.org/Graphics/SVG/1.1/DTD/svg11.dtd">
<svg version="1.1" id="youtubeicon" xmlns="http://www.w3.org/2000/svg" xmlns:xlink="http://www.w3.org/1999/xlink" x="0px"
	 y="0px" viewBox="0 0 221 221.2" enable-background="new 0 0 221 221.2" xml:space="preserve">
<path id="Base" fill="#8E98FF" d="M111,0C50.2,0,0.9,49.3,0.9,110.1c0,60.8,49.3,110.1,110.1,110.1s110.1-49.3,110.1-110.1
	C221.1,49.3,171.8,0,111,0z M166,125.8c0,12.1-9.8,21.9-21.9,21.9H78.7c-12.1,0-21.9-9.8-21.9-21.9V94.4c0-12.1,9.8-21.9,21.9-21.9
	h65.4c12.1,0,21.9,9.8,21.9,21.9V125.8z"/>
<polygon id="Play" fill="#8E98FF" points="99.3,92.9 99.3,127.2 128.4,110.1 "/>
</svg>
